<?xml version="1.0" encoding="utf-8"?>
<!-- Generator: Adobe Illustrator 16.0.0, SVG Export Plug-In . SVG Version: 6.00 Build 0)  -->
<!DOCTYPE svg PUBLIC "-//W3C//DTD SVG 1.1//EN" "http://www.w3.org/Graphics/SVG/1.1/DTD/svg11.dtd">
<svg version="1.1" id="Layer_1" xmlns="http://www.w3.org/2000/svg" xmlns:xlink="http://www.w3.org/1999/xlink" x="0px" y="0px"
	 width="328.167px" height="287px" viewBox="0 0 328.167 287" enable-background="new 0 0 328.167 287" xml:space="preserve">
<g>
	<path fill="#FFFFFF" d="M53.119,166.776c-0.143,1.512-0.37,2.982-0.703,4.41c-0.112,0.385-0.438,0.576-0.987,0.576
		c-0.493,0-0.797-0.191-0.906-0.576c-0.497-2.53-1.554-4.207-3.169-5.03c-1.626-0.825-3.588-1.235-5.9-1.235
		c-0.6,0-1.153,0.016-1.647,0.042c-0.491,0.03-1.015,0.067-1.567,0.124c-0.491,0.057-1.052,0.096-1.689,0.124
		c-0.629,0.026-1.163,0.041-1.603,0.041c-0.442,0-0.908,0-1.407,0c-0.435,0-0.852-0.028-1.231-0.084v46.816
		c0,0.165,0.038,0.561,0.125,1.195c0.085,0.632,0.164,1.279,0.241,1.937c0.088,0.66,0.184,1.262,0.294,1.811
		c0.11,0.552,0.189,0.857,0.246,0.91c0.553,0.549,1.101,0.881,1.646,0.985c0.551,0.114,1.077,0.196,1.57,0.252
		c0.768,0.056,1.424,0.136,1.974,0.247c0.55,0.11,0.959,0.437,1.242,0.988c0.161,0.272,0.161,0.512,0,0.699
		c-0.167,0.19-0.443,0.288-0.826,0.288c-3.355,0-6.693,0.028-10.011,0.086c-3.331,0.053-6.668,0.022-10.017-0.086
		c-0.553-0.055-0.853-0.273-0.905-0.657c-0.06-0.386,0.191-0.631,0.741-0.743c1.153-0.224,2.063-0.454,2.718-0.699
		c0.659-0.25,1.153-0.62,1.485-1.115c0.326-0.495,0.534-1.127,0.615-1.895c0.086-0.77,0.126-1.812,0.126-3.132v-48.051H10.795
		c-1.591,0-2.997,0.564-4.209,1.689c-1.207,1.127-2.139,2.401-2.798,3.829c-0.16,0.331-0.481,0.482-0.943,0.453
		c-0.472-0.026-0.765-0.232-0.87-0.615c-0.055-0.222-0.099-0.425-0.126-0.617c-0.025-0.195-0.038-0.425-0.038-0.7
		c0-0.99,0.164-2.071,0.493-3.259c0.329-1.18,0.689-2.372,1.074-3.584c0.162-0.495,0.286-0.965,0.371-1.404
		c0.081-0.435,0.18-0.878,0.287-1.318c0.11-0.275,0.32-0.451,0.621-0.533c0.302-0.082,0.587-0.066,0.864,0.039
		c0.328,0.219,0.796,0.426,1.403,0.622c0.605,0.188,1.244,0.369,1.936,0.537c0.687,0.158,1.343,0.284,1.976,0.368
		c0.629,0.081,1.113,0.124,1.445,0.124h35.273c0.327,0,0.755-0.069,1.277-0.208c0.526-0.132,1.007-0.258,1.445-0.371
		c0.275-0.106,0.591-0.176,0.943-0.206c0.358-0.023,0.672-0.067,0.949-0.12c0.275-0.057,0.539-0.031,0.785,0.082
		c0.247,0.105,0.37,0.297,0.37,0.576v1.812C53.324,163.742,53.256,165.267,53.119,166.776z"/>
	<path fill="#FFFFFF" d="M77.764,216.602c-0.852-0.047-1.696-0.056-2.527-0.034c-0.83,0.023-1.648,0.034-2.454,0.034h-3.375
		c-0.76,0-1.725-0.023-2.895-0.067c-1.167-0.044-2.064-0.224-2.691-0.538l0.737-1.077c0.364,0.178,0.607,0.268,0.744,0.268
		c0.359,0,0.661-0.146,0.909-0.437c0.245-0.292,0.449-0.663,0.605-1.113c0.16-0.447,0.268-0.91,0.333-1.379
		c0.074-0.471,0.104-0.888,0.104-1.248v-13.4H45.164v13.268c0,1.707,0.292,2.875,0.875,3.499c0.582,0.633,1.728,0.901,3.436,0.811
		l0.064,1.214c-1.167,0.043-2.3,0.078-3.397,0.099c-1.104,0.021-2.213,0.035-3.333,0.035c-1.17,0-2.316-0.014-3.438-0.035
		c-1.125-0.021-2.268-0.056-3.436-0.099c-0.449,0-0.696-0.177-0.742-0.539c-0.045-0.358,0.159-0.584,0.605-0.675
		c0.718-0.136,1.292-0.258,1.72-0.37c0.428-0.113,0.754-0.311,0.977-0.607c0.222-0.289,0.373-0.681,0.439-1.179
		c0.065-0.489,0.101-1.166,0.101-2.021v-27.344c0-1.032-0.25-1.66-0.74-1.886c-0.499-0.225-0.992-0.36-1.486-0.403
		c-0.449-0.044-0.862-0.111-1.248-0.205c-0.378-0.084-0.685-0.311-0.909-0.674c-0.175-0.221-0.199-0.423-0.065-0.605
		c0.136-0.176,0.38-0.269,0.742-0.269c2.155,0,4.33,0.012,6.534,0.036c2.199,0.023,4.378,0.125,6.531,0.301
		c0.45,0.046,0.663,0.246,0.641,0.609c-0.024,0.356-0.256,0.537-0.708,0.537c-0.766,0.044-1.481,0.26-2.156,0.641
		c-0.67,0.383-1.01,0.997-1.01,1.851v11.181h22.091v-11.113c0-0.539-0.079-0.964-0.234-1.278c-0.156-0.314-0.359-0.563-0.605-0.741
		c-0.249-0.179-0.52-0.293-0.811-0.338c-0.295-0.043-0.57-0.067-0.842-0.067c-0.539-0.09-0.998-0.153-1.383-0.2
		c-0.38-0.047-0.617-0.316-0.703-0.809c-0.088-0.447,0.157-0.678,0.739-0.678c2.204,0,4.402,0.025,6.601,0.069
		c2.199,0.047,4.381,0.138,6.534,0.269c0.446,0.047,0.682,0.228,0.709,0.54c0.026,0.315-0.197,0.516-0.642,0.608
		c-0.854,0.131-1.605,0.336-2.256,0.605c-0.647,0.268-0.979,0.92-0.979,1.952v27.278c0,0.181,0.029,0.461,0.072,0.842
		c0.04,0.38,0.11,0.786,0.2,1.214c0.091,0.426,0.192,0.819,0.304,1.177c0.113,0.358,0.237,0.564,0.366,0.607
		c0.223,0.043,0.465,0.075,0.708,0.1c0.247,0.025,0.483,0.034,0.708,0.034c0.409,0,0.818,0.035,1.247,0.1
		c0.425,0.067,0.847,0.26,1.246,0.575L77.764,216.602z"/>
	<path fill="#FFFFFF" d="M100.123,216.104l-0.541,0.27c-0.271,0.091-0.785,0.138-1.55,0.138c-0.76,0-1.579-0.015-2.459-0.039
		c-0.874-0.019-1.706-0.036-2.489-0.061c-0.79-0.026-1.336-0.038-1.653-0.038c-0.717,0-1.439,0.012-2.155,0.038
		c-0.717,0.024-1.438,0.029-2.15,0.029c-1.62,0-3.237,0.013-4.852,0.031c-1.618,0.024-3.208-0.008-4.785-0.099
		c-0.401-0.045-0.596-0.257-0.569-0.641c0.019-0.38,0.232-0.573,0.634-0.573c1.261-0.041,2.094-0.437,2.497-1.175
		c0.407-0.742,0.605-1.72,0.605-2.934v-27.613c0-0.761-0.215-1.267-0.638-1.515c-0.429-0.25-0.889-0.413-1.383-0.503
		c-0.361-0.092-0.732-0.182-1.11-0.27c-0.386-0.092-0.749-0.246-1.113-0.471c-0.358-0.182-0.473-0.403-0.334-0.677
		c0.133-0.268,0.404-0.406,0.805-0.406c0.403,0,0.936,0.012,1.584,0.036c0.651,0.027,1.375,0.032,2.189,0.032
		c1.304,0.047,2.713,0.083,4.245,0.104c1.524,0.021,3.077,0.033,4.644,0.033c2.247,0,4.29-0.044,6.134-0.138
		c1.838-0.088,3.075-0.245,3.697-0.467c0.322-0.096,0.586-0.071,0.813,0.065c0.225,0.136,0.31,0.313,0.27,0.539
		c-0.093,0.853-0.226,1.638-0.401,2.357c-0.185,0.718-0.36,1.438-0.543,2.157c-0.091,0.312-0.156,0.602-0.202,0.874
		c-0.047,0.27-0.113,0.538-0.2,0.812c-0.093,0.309-0.359,0.464-0.812,0.464c-0.448,0-0.696-0.175-0.739-0.535
		c-0.045-0.766-0.226-1.371-0.541-1.816c-0.313-0.452-0.716-0.799-1.213-1.047c-0.492-0.248-1.049-0.415-1.684-0.503
		c-0.63-0.094-1.255-0.138-1.885-0.138c-0.359,0-0.702,0.013-1.041,0.032c-0.338,0.023-0.687,0.035-1.044,0.035
		c-0.316,0-0.652,0.015-1.012,0.036c-0.356,0.021-0.72,0.034-1.079,0.034h-1.21v12.864h8.082c0.225,0,0.518-0.083,0.872-0.239
		c0.359-0.155,0.745-0.302,1.148-0.438h-0.068c0.36-0.18,0.686-0.426,0.978-0.738c0.292-0.313,0.574-0.518,0.842-0.606
		c0.312-0.09,0.571-0.058,0.775,0.1c0.201,0.16,0.28,0.349,0.232,0.575c-0.088,0.581-0.164,1.276-0.232,2.083
		c-0.067,0.811-0.149,1.507-0.236,2.091c-0.09,0.539-0.181,1.076-0.271,1.615c-0.091,0.538-0.177,1.125-0.268,1.751
		c-0.048,0.225-0.201,0.384-0.474,0.472c-0.27,0.093-0.517,0.046-0.736-0.135c-0.542-0.313-0.802-0.526-0.775-0.639
		c0.021-0.112,0.006-0.28-0.037-0.505c-0.133-0.406-0.28-0.786-0.438-1.147c-0.157-0.356-0.301-0.581-0.44-0.669
		c-0.22-0.182-0.671-0.327-1.347-0.438c-0.672-0.114-1.423-0.19-2.254-0.237c-0.833-0.046-1.647-0.067-2.458-0.067
		c-0.806,0-1.479,0-2.021,0h-0.875v13.066c0.718,0.987,1.732,1.704,3.034,2.154c1.299,0.451,2.531,0.673,3.703,0.673
		c1.436,0,2.756-0.343,3.972-1.043c1.21-0.696,2.021-1.829,2.426-3.4c0.042-0.137,0.154-0.237,0.335-0.307
		c0.176-0.063,0.363-0.087,0.538-0.063c0.179,0.021,0.346,0.088,0.51,0.202c0.153,0.112,0.212,0.234,0.164,0.369L100.123,216.104z"
		/>
	<path fill="#FFFFFF" d="M151.885,221.262c-2.297,0-4.599-0.621-6.919-1.867c-2.316-1.243-4.605-2.84-6.878-4.792
		c-2.271-1.95-4.503-4.11-6.698-6.476c-2.193-2.368-4.291-4.672-6.295-6.918c-1.27-1.412-2.443-2.745-3.51-3.987
		c-1.076-1.246-2.122-2.356-3.148-3.334v17.713c0,1.464,0.045,2.601,0.145,3.405c0.096,0.806,0.245,1.403,0.438,1.793
		s0.452,0.634,0.771,0.732c0.319,0.098,0.668,0.172,1.064,0.217c0.532,0.1,1.093,0.187,1.68,0.258
		c0.586,0.07,1.221,0.305,1.902,0.697c0.39,0.145,0.514,0.375,0.366,0.691c-0.146,0.32-0.417,0.478-0.804,0.478
		c-2.929,0-5.859,0.062-8.785,0.182c-2.929,0.124-5.857,0.134-8.786,0.041c-0.486,0-0.746-0.198-0.768-0.586
		c-0.02-0.392,0.21-0.636,0.698-0.732c1.029-0.198,1.831-0.415,2.415-0.66c0.583-0.243,1.024-0.601,1.317-1.06
		c0.292-0.467,0.476-1.078,0.548-1.831c0.075-0.758,0.108-1.721,0.108-2.892v-40.693c0-0.83-0.084-1.477-0.254-1.94
		c-0.172-0.468-0.402-0.819-0.696-1.063c-0.292-0.24-0.625-0.405-0.989-0.473c-0.364-0.075-0.717-0.134-1.057-0.183
		c-0.589-0.102-1.115-0.209-1.577-0.33c-0.464-0.124-0.839-0.428-1.131-0.914c-0.2-0.244-0.226-0.452-0.075-0.624
		c0.146-0.174,0.414-0.255,0.803-0.255c2.826,0,5.664-0.038,8.494-0.113c2.825-0.068,5.656-0.008,8.485,0.187
		c0.488,0.047,0.733,0.267,0.733,0.656c0,0.391-0.245,0.611-0.733,0.659c-1.167,0.096-2.169,0.612-3.002,1.539
		c-0.828,0.925-1.238,1.973-1.238,3.147c-0.053,2.636-0.053,5.416,0,8.344c0.044,2.927,0.098,5.804,0.146,8.636
		c0.827-0.976,1.802-2.048,2.928-3.224c1.12-1.17,2.07-2.144,2.853-2.924c0.246-0.247,0.55-0.562,0.914-0.954
		c0.366-0.392,0.72-0.728,1.062-1.023c0.926-0.876,1.975-1.843,3.146-2.892c1.175-1.047,2.256-2.121,3.258-3.218
		c0.997-1.104,1.84-2.173,2.521-3.223c0.688-1.046,1.029-1.987,1.029-2.819c0-0.681-0.148-1.294-0.441-1.831
		c-0.148-0.243-0.148-0.461,0-0.657c0.151-0.194,0.417-0.267,0.807-0.217c1.22,0.097,2.426,0.134,3.627,0.109
		c1.191-0.026,2.424-0.039,3.689-0.039c1.119,0,2.22-0.048,3.295-0.144c1.076-0.101,2.169-0.101,3.296,0
		c0.487,0.047,0.729,0.269,0.729,0.656c0,0.392-0.242,0.614-0.729,0.661c-1.565,0.195-3.185,0.791-4.872,1.793
		c-1.682,1.002-3.375,2.244-5.083,3.731c-1.709,1.49-3.405,3.125-5.086,4.906c-1.683,1.777-3.31,3.523-4.867,5.229
		c-1.175,1.317-2.32,2.575-3.442,3.775c-1.123,1.191-2.173,2.255-3.146,3.177c0.875,0.831,1.843,1.858,2.891,3.077
		c1.048,1.218,2.184,2.465,3.404,3.732c2.045,2.245,4.28,4.637,6.691,7.173c2.418,2.538,4.85,4.882,7.287,7.026
		c2.441,2.145,4.828,3.928,7.173,5.343c2.344,1.415,4.438,2.101,6.294,2.048l0.44,1.243
		C156.323,220.651,154.177,221.262,151.885,221.262z"/>
	<path fill="#FFFFFF" d="M174.561,213.696l-0.564,0.284c-0.282,0.095-0.823,0.141-1.622,0.141c-0.805,0-1.658-0.011-2.576-0.037
		c-0.923-0.021-1.787-0.043-2.611-0.067c-0.827-0.024-1.4-0.036-1.731-0.036c-0.753,0-1.505,0.012-2.254,0.036
		c-0.753,0.024-1.509,0.037-2.26,0.037c-1.697,0-3.391,0.01-5.083,0.03c-1.693,0.026-3.36-0.009-5.015-0.104
		c-0.418-0.046-0.621-0.269-0.593-0.671c0.022-0.399,0.245-0.599,0.668-0.599c1.318-0.046,2.189-0.458,2.61-1.235
		c0.426-0.775,0.637-1.8,0.637-3.072v-28.931c0-0.8-0.223-1.325-0.675-1.586c-0.442-0.261-0.923-0.438-1.445-0.531
		c-0.373-0.095-0.763-0.188-1.16-0.284c-0.402-0.09-0.785-0.257-1.167-0.491c-0.378-0.189-0.494-0.424-0.352-0.708
		c0.139-0.283,0.425-0.422,0.849-0.422c0.422,0,0.974,0.012,1.658,0.034c0.682,0.024,1.448,0.037,2.292,0.037
		c1.366,0.05,2.844,0.081,4.445,0.105c1.601,0.023,3.22,0.036,4.87,0.036c2.353,0,4.488-0.048,6.42-0.142
		c1.931-0.096,3.223-0.258,3.882-0.491c0.334-0.095,0.611-0.071,0.848,0.066c0.237,0.144,0.33,0.329,0.285,0.566
		c-0.097,0.893-0.235,1.72-0.426,2.471c-0.189,0.749-0.373,1.507-0.567,2.256c-0.096,0.332-0.161,0.635-0.208,0.918
		c-0.051,0.283-0.117,0.567-0.216,0.849c-0.096,0.325-0.375,0.491-0.847,0.491c-0.469,0-0.726-0.187-0.774-0.563
		c-0.046-0.799-0.235-1.435-0.565-1.902c-0.327-0.47-0.746-0.837-1.268-1.098c-0.52-0.258-1.105-0.435-1.767-0.529
		c-0.657-0.092-1.317-0.143-1.978-0.143c-0.373,0-0.737,0.016-1.088,0.038c-0.357,0.023-0.723,0.035-1.098,0.035
		c-0.328,0-0.682,0.013-1.053,0.034c-0.381,0.023-0.754,0.035-1.132,0.035h-1.268v13.48h8.464c0.234,0,0.543-0.085,0.919-0.246
		c0.375-0.165,0.78-0.321,1.203-0.462h-0.077c0.381-0.187,0.721-0.446,1.024-0.774c0.309-0.33,0.604-0.54,0.881-0.634
		c0.327-0.096,0.601-0.063,0.815,0.102c0.208,0.167,0.289,0.364,0.249,0.602c-0.097,0.612-0.18,1.344-0.249,2.188
		c-0.074,0.85-0.154,1.578-0.246,2.189c-0.097,0.565-0.188,1.128-0.285,1.693c-0.096,0.565-0.187,1.174-0.284,1.832
		c-0.043,0.237-0.206,0.401-0.495,0.496c-0.277,0.094-0.539,0.048-0.775-0.141c-0.558-0.33-0.83-0.551-0.812-0.669
		c0.025-0.118,0.016-0.293-0.03-0.533c-0.138-0.42-0.294-0.822-0.464-1.198c-0.16-0.376-0.312-0.608-0.454-0.707
		c-0.24-0.186-0.706-0.341-1.414-0.456c-0.703-0.119-1.495-0.205-2.361-0.246c-0.871-0.047-1.729-0.071-2.574-0.071
		c-0.848,0-1.558,0-2.123,0h-0.912v13.688c0.749,1.036,1.809,1.79,3.175,2.262c1.361,0.467,2.659,0.704,3.88,0.704
		c1.505,0,2.89-0.364,4.161-1.093c1.27-0.73,2.119-1.916,2.542-3.564c0.045-0.143,0.166-0.247,0.353-0.316
		c0.188-0.072,0.375-0.096,0.566-0.072c0.187,0.023,0.361,0.094,0.524,0.211c0.164,0.121,0.228,0.248,0.179,0.389L174.561,213.696z"
		/>
	<path fill="#FFFFFF" d="M200.458,213.696l-0.562,0.284c-0.288,0.095-0.823,0.141-1.627,0.141c-0.798,0-1.654-0.011-2.572-0.037
		c-0.919-0.021-1.791-0.043-2.615-0.067c-0.819-0.024-1.399-0.036-1.725-0.036c-0.754,0-1.507,0.012-2.26,0.036
		c-0.756,0.024-1.508,0.037-2.259,0.037c-1.69,0-3.385,0.01-5.079,0.03c-1.691,0.026-3.364-0.009-5.015-0.104
		c-0.421-0.046-0.623-0.269-0.599-0.671c0.026-0.399,0.249-0.599,0.67-0.599c1.32-0.046,2.191-0.458,2.614-1.235
		c0.42-0.775,0.638-1.8,0.638-3.072v-28.931c0-0.8-0.226-1.325-0.675-1.586c-0.45-0.261-0.926-0.438-1.447-0.531
		c-0.376-0.095-0.762-0.188-1.16-0.284c-0.405-0.09-0.79-0.257-1.168-0.491c-0.378-0.189-0.493-0.424-0.35-0.708
		c0.139-0.283,0.424-0.422,0.843-0.422c0.425,0,0.98,0.012,1.66,0.034c0.682,0.024,1.447,0.037,2.297,0.037
		c1.357,0.05,2.844,0.081,4.441,0.105c1.601,0.023,3.226,0.036,4.866,0.036c2.354,0,4.496-0.048,6.426-0.142
		c1.93-0.096,3.224-0.258,3.881-0.491c0.333-0.095,0.613-0.071,0.849,0.066c0.23,0.144,0.326,0.329,0.285,0.566
		c-0.097,0.893-0.24,1.72-0.429,2.471c-0.188,0.749-0.372,1.507-0.566,2.256c-0.092,0.332-0.162,0.635-0.213,0.918
		c-0.045,0.283-0.113,0.567-0.21,0.849c-0.096,0.325-0.373,0.491-0.844,0.491c-0.473,0-0.733-0.187-0.775-0.563
		c-0.048-0.799-0.239-1.435-0.564-1.902c-0.331-0.47-0.754-0.837-1.271-1.098c-0.517-0.258-1.107-0.435-1.767-0.529
		c-0.66-0.092-1.32-0.143-1.978-0.143c-0.374,0-0.739,0.016-1.091,0.038c-0.356,0.023-0.72,0.035-1.095,0.035
		c-0.329,0-0.681,0.013-1.057,0.034c-0.376,0.023-0.752,0.035-1.134,0.035h-1.268v13.48h8.471c0.231,0,0.539-0.085,0.917-0.246
		c0.373-0.165,0.775-0.321,1.198-0.462h-0.066c0.375-0.187,0.715-0.446,1.018-0.774c0.308-0.33,0.604-0.54,0.886-0.634
		c0.323-0.096,0.596-0.063,0.813,0.102c0.211,0.167,0.285,0.364,0.242,0.602c-0.096,0.612-0.175,1.344-0.242,2.188
		c-0.074,0.85-0.157,1.578-0.25,2.189c-0.097,0.565-0.189,1.128-0.283,1.693c-0.093,0.565-0.187,1.174-0.28,1.832
		c-0.049,0.237-0.212,0.401-0.495,0.496c-0.284,0.094-0.543,0.048-0.778-0.141c-0.563-0.33-0.836-0.551-0.812-0.669
		c0.024-0.118,0.014-0.293-0.03-0.533c-0.144-0.42-0.3-0.822-0.466-1.198c-0.162-0.376-0.31-0.608-0.453-0.707
		c-0.237-0.186-0.708-0.341-1.414-0.456c-0.705-0.119-1.495-0.205-2.361-0.246c-0.873-0.047-1.729-0.071-2.574-0.071
		c-0.847,0-1.553,0-2.12,0h-0.918v13.688c0.753,1.036,1.812,1.79,3.177,2.262c1.363,0.467,2.658,0.704,3.883,0.704
		c1.504,0,2.892-0.364,4.163-1.093c1.27-0.73,2.117-1.916,2.54-3.564c0.048-0.143,0.162-0.247,0.353-0.316
		c0.186-0.072,0.375-0.096,0.565-0.072c0.184,0.023,0.359,0.094,0.526,0.211c0.168,0.121,0.224,0.248,0.18,0.389L200.458,213.696z"
		/>
	<path fill="#FFFFFF" d="M231.334,186.622c-0.814,1.838-1.896,3.428-3.243,4.778c-1.359,1.357-2.942,2.426-4.761,3.216
		c-1.812,0.79-3.692,1.183-5.648,1.183c-0.698,0-1.374-0.056-2.024-0.171c-0.655-0.112-1.27-0.222-1.87-0.336
		c-0.541-0.114-0.79-0.384-0.739-0.805c0.06-0.423,0.36-0.635,0.897-0.635h1.544c1.467,0,2.834-0.225,4.106-0.675
		c1.268-0.451,2.382-1.1,3.33-1.943c0.947-0.852,1.693-1.893,2.234-3.132c0.541-1.24,0.812-2.675,0.812-4.314
		c0-1.52-0.241-2.957-0.729-4.312c-0.489-1.354-1.165-2.536-2.032-3.55c-0.869-1.018-1.911-1.834-3.129-2.454
		c-1.216-0.62-2.559-0.933-4.02-0.933c-0.757,0-1.475,0.074-2.151,0.214c-0.682,0.141-1.346,0.326-1.998,0.548v35.522
		c0,0.168,0.045,0.492,0.124,0.969c0.085,0.484,0.189,0.974,0.326,1.483c0.136,0.506,0.255,0.984,0.365,1.432
		c0.104,0.46,0.224,0.735,0.319,0.854c0.274,0.108,0.626,0.183,1.062,0.207c0.438,0.032,0.785,0.071,1.06,0.129
		c0.644,0.11,1.229,0.21,1.746,0.295c0.514,0.087,0.879,0.352,1.096,0.805c0.162,0.281,0.162,0.538,0,0.765
		c-0.162,0.222-0.432,0.334-0.814,0.334c-2.761,0-5.504-0.026-8.242-0.086c-2.739-0.054-5.486-0.139-8.247-0.248
		c-0.541,0-0.83-0.227-0.855-0.684c-0.025-0.445,0.233-0.729,0.773-0.845c0.86-0.165,1.553-0.324,2.073-0.465
		c0.516-0.14,0.903-0.392,1.177-0.764c0.265-0.361,0.445-0.852,0.521-1.475c0.089-0.621,0.123-1.464,0.123-2.538v-34.588
		c0-1.186-0.277-1.901-0.846-2.159c-0.569-0.251-1.152-0.406-1.751-0.462c-0.535-0.06-1.053-0.143-1.545-0.255
		c-0.482-0.112-0.86-0.396-1.134-0.844c-0.218-0.281-0.24-0.535-0.079-0.762c0.161-0.224,0.455-0.341,0.89-0.341h1.388h5.197
		c0.593,0,1.15,0.015,1.661,0.046c0.515,0.029,1.072,0.039,1.664,0.039h2.521c0.54,0,1.058-0.01,1.543-0.039
		c0.492-0.031,1.028-0.046,1.629-0.046c1.998,0,4.006,0.117,6.012,0.341c1.998,0.227,3.813,0.733,5.44,1.52
		c1.626,0.792,2.936,1.916,3.938,3.38c1.005,1.471,1.507,3.468,1.507,6.009C232.555,182.86,232.151,184.792,231.334,186.622z"/>
	<path fill="#FFFFFF" d="M254.653,213.696l-0.562,0.284c-0.284,0.095-0.826,0.141-1.626,0.141c-0.802,0-1.657-0.011-2.577-0.037
		c-0.918-0.021-1.784-0.043-2.609-0.067c-0.823-0.024-1.4-0.036-1.731-0.036c-0.749,0-1.505,0.012-2.258,0.036
		c-0.75,0.024-1.507,0.037-2.256,0.037c-1.693,0-3.388,0.01-5.084,0.03c-1.69,0.026-3.361-0.009-5.01-0.104
		c-0.425-0.046-0.623-0.269-0.598-0.671c0.021-0.399,0.249-0.599,0.672-0.599c1.313-0.046,2.19-0.458,2.613-1.235
		c0.422-0.775,0.632-1.8,0.632-3.072v-28.931c0-0.8-0.221-1.325-0.674-1.586c-0.441-0.261-0.924-0.438-1.445-0.531
		c-0.374-0.095-0.762-0.188-1.161-0.284c-0.401-0.09-0.788-0.257-1.166-0.491c-0.374-0.189-0.497-0.424-0.351-0.708
		c0.143-0.283,0.421-0.422,0.845-0.422c0.426,0,0.973,0.012,1.658,0.034c0.683,0.024,1.444,0.037,2.294,0.037
		c1.366,0.05,2.844,0.081,4.446,0.105c1.602,0.023,3.223,0.036,4.868,0.036c2.355,0,4.492-0.048,6.421-0.142
		c1.929-0.096,3.222-0.258,3.88-0.491c0.335-0.095,0.612-0.071,0.85,0.066c0.232,0.144,0.329,0.329,0.281,0.566
		c-0.091,0.893-0.234,1.72-0.423,2.471c-0.187,0.749-0.373,1.507-0.563,2.256c-0.097,0.332-0.166,0.635-0.212,0.918
		c-0.048,0.283-0.116,0.567-0.213,0.849c-0.096,0.325-0.378,0.491-0.847,0.491c-0.47,0-0.729-0.187-0.778-0.563
		c-0.046-0.799-0.231-1.435-0.562-1.902c-0.33-0.47-0.753-0.837-1.271-1.098c-0.517-0.258-1.104-0.435-1.765-0.529
		c-0.655-0.092-1.319-0.143-1.979-0.143c-0.375,0-0.739,0.016-1.087,0.038c-0.354,0.023-0.718,0.035-1.098,0.035
		c-0.332,0-0.682,0.013-1.06,0.034c-0.374,0.023-0.746,0.035-1.123,0.035h-1.273v13.48h8.467c0.237,0,0.543-0.085,0.918-0.246
		c0.376-0.165,0.778-0.321,1.203-0.462h-0.073c0.378-0.187,0.717-0.446,1.024-0.774c0.303-0.33,0.598-0.54,0.876-0.634
		c0.331-0.096,0.604-0.063,0.816,0.102c0.212,0.167,0.293,0.364,0.249,0.602c-0.098,0.612-0.177,1.344-0.249,2.188
		c-0.071,0.85-0.153,1.578-0.248,2.189c-0.094,0.565-0.185,1.128-0.28,1.693s-0.19,1.174-0.288,1.832
		c-0.042,0.237-0.204,0.401-0.492,0.496c-0.28,0.094-0.541,0.048-0.777-0.141c-0.558-0.33-0.834-0.551-0.809-0.669
		c0.024-0.118,0.017-0.293-0.034-0.533c-0.14-0.42-0.293-0.822-0.459-1.198c-0.162-0.376-0.315-0.608-0.459-0.707
		c-0.234-0.186-0.703-0.341-1.411-0.456c-0.708-0.119-1.495-0.205-2.364-0.246c-0.87-0.047-1.727-0.071-2.576-0.071
		c-0.847,0-1.551,0-2.116,0h-0.917v13.688c0.753,1.036,1.812,1.79,3.177,2.262c1.363,0.467,2.654,0.704,3.878,0.704
		c1.505,0,2.896-0.364,4.162-1.093c1.273-0.73,2.122-1.916,2.543-3.564c0.046-0.143,0.166-0.247,0.354-0.316
		c0.187-0.072,0.376-0.096,0.562-0.072c0.188,0.023,0.366,0.094,0.53,0.211c0.169,0.121,0.227,0.248,0.176,0.389L254.653,213.696z"
		/>
	<path fill="#FFFFFF" d="M296.114,217.873c-1.759,0-3.348-0.27-4.756-0.828c-1.407-0.554-2.692-1.283-3.85-2.188
		s-2.24-1.938-3.242-3.097c-1.012-1.156-1.992-2.338-2.948-3.548c-0.855-1.104-1.712-2.166-2.568-3.17
		c-0.854-1.005-1.762-1.914-2.717-2.718c-0.86-0.756-1.948-1.22-3.282-1.399c-1.336-0.174-2.557-0.266-3.665-0.266
		c-0.398,0-0.664-0.007-0.79-0.033c-0.126-0.027-0.393-0.014-0.792,0.033v9.97c0,0.201,0.035,0.519,0.114,0.945
		c0.075,0.427,0.163,0.878,0.263,1.359c0.102,0.474,0.209,0.9,0.338,1.281c0.127,0.378,0.234,0.593,0.339,0.642
		c0.154,0.102,0.379,0.15,0.682,0.15c0.353,0,0.657,0.025,0.906,0.077c0.451,0.049,0.921,0.111,1.396,0.188
		c0.479,0.078,0.917,0.264,1.32,0.567c0.404,0.202,0.529,0.452,0.38,0.752c-0.155,0.304-0.457,0.454-0.91,0.454
		c-2.565,0-5.116-0.014-7.66-0.039c-2.542-0.023-5.1-0.111-7.663-0.26c-0.453-0.053-0.69-0.27-0.722-0.644
		c-0.022-0.38,0.189-0.618,0.648-0.719c0.802-0.099,1.438-0.213,1.922-0.336c0.481-0.128,0.842-0.342,1.093-0.643
		c0.254-0.307,0.42-0.747,0.495-1.325c0.072-0.575,0.11-1.345,0.11-2.301v-30.654c0-1.206-0.264-1.936-0.793-2.188
		c-0.53-0.25-1.068-0.401-1.623-0.451c-0.557-0.056-1.031-0.127-1.438-0.229c-0.396-0.1-0.728-0.352-0.977-0.756
		c-0.206-0.249-0.229-0.475-0.079-0.678s0.426-0.303,0.83-0.303h1.139c0.552,0,1.13,0,1.735,0c0.6,0,1.205,0.024,1.808,0.073
		c0.81,0.052,1.561,0.077,2.267,0.077s1.462,0,2.265,0h1.583c0.509,0,0.995-0.013,1.473-0.039c0.48-0.024,0.998-0.038,1.554-0.038
		c1.857,0,3.811,0.102,5.849,0.303c2.035,0.201,3.885,0.654,5.547,1.36c1.663,0.707,3.035,1.736,4.118,3.095
		c1.08,1.359,1.622,3.196,1.622,5.51c0,1.158-0.216,2.316-0.646,3.476c-0.426,1.157-0.977,2.266-1.658,3.322
		c-0.679,1.055-1.432,2.052-2.267,2.979c-0.827,0.934-1.669,1.779-2.524,2.532c0.748,0.754,1.495,1.546,2.224,2.38
		c0.73,0.83,1.476,1.697,2.226,2.602c1.21,1.464,2.495,2.947,3.859,4.457c1.352,1.508,2.76,2.87,4.223,4.074
		c1.459,1.208,2.944,2.175,4.454,2.908c1.513,0.729,3.02,0.994,4.528,0.791l0.453,1.283
		C300.4,217.476,298.33,217.873,296.114,217.873z M279.695,184.617c-0.426-1.281-1.059-2.404-1.89-3.354
		c-0.829-0.958-1.82-1.726-2.981-2.307c-1.158-0.581-2.44-0.868-3.849-0.868c-1.209,0-2.369,0.152-3.472,0.453v18.195
		c0.855,0.103,1.748,0.179,2.682,0.227c0.926,0.051,1.818,0.075,2.677,0.075c2.467,0,4.329-0.756,5.589-2.265
		c1.258-1.513,1.889-3.549,1.889-6.117C280.34,187.252,280.123,185.902,279.695,184.617z"/>
	<path fill="#FFFFFF" d="M32.984,251.654c-0.742,1.648-1.749,3.076-3.026,4.284c-1.277,1.209-2.767,2.21-4.467,3.005
		c-1.708,0.798-3.519,1.416-5.44,1.855c-0.165,0.025-0.364,0.054-0.596,0.079c-0.234,0.03-0.479,0.051-0.741,0.062
		c-0.261,0.016-0.529,0.022-0.804,0.022c-0.248,0-0.453,0-0.619,0c-1.126,0-2.291-0.209-3.5-0.619
		c-1.205-0.409-2.375-0.969-3.499-1.667c-1.127-0.699-2.192-1.529-3.196-2.493c-1.003-0.958-1.874-1.995-2.61-3.109
		c-0.745-1.109-1.333-2.272-1.773-3.479c-0.438-1.206-0.66-2.419-0.66-3.625c0-2.416,0.263-4.556,0.784-6.424
		c0.521-1.867,1.359-3.487,2.512-4.859c1.154-1.371,2.637-2.522,4.45-3.443c1.812-0.917,4.008-1.649,6.586-2.202
		c0.387-0.08,0.79-0.143,1.216-0.183c0.429-0.041,0.831-0.062,1.218-0.062c2.579,0,4.833,0.523,6.751,1.567
		c1.924,1.042,3.517,2.387,4.78,4.031c1.261,1.649,2.206,3.496,2.821,5.541c0.616,2.046,0.928,4.071,0.928,6.076
		C34.1,248.125,33.726,250.006,32.984,251.654z M29.154,240.594c-0.52-1.771-1.296-3.354-2.325-4.758
		c-1.032-1.398-2.294-2.539-3.79-3.419c-1.499-0.878-3.221-1.318-5.168-1.318c-1.844,0-3.467,0.341-4.882,1.01
		c-1.411,0.675-2.608,1.594-3.582,2.761c-0.976,1.168-1.715,2.525-2.225,4.079c-0.509,1.55-0.76,3.204-0.76,4.959
		c0,1.784,0.266,3.572,0.803,5.357c0.534,1.785,1.323,3.391,2.368,4.817c1.039,1.428,2.326,2.589,3.848,3.48
		c1.524,0.895,3.263,1.339,5.21,1.339c1.839,0,3.46-0.352,4.864-1.054c1.397-0.696,2.572-1.635,3.519-2.819
		c0.947-1.177,1.669-2.557,2.163-4.138c0.493-1.578,0.742-3.233,0.742-4.962C29.939,244.144,29.676,242.366,29.154,240.594z"/>
	<path fill="#FFFFFF" d="M52.004,233.444c0,0.077-0.009,0.195-0.029,0.363c-0.019,0.168-0.038,0.344-0.052,0.532
		c-0.022,0.185-0.031,0.334-0.031,0.445c0,0.372-0.029,0.782-0.086,1.23c-0.052,0.443-0.129,0.864-0.22,1.255
		c-0.095,0.39-0.225,0.746-0.393,1.062c-0.169,0.316-0.361,0.549-0.585,0.7c-0.223,0.11-0.446,0.122-0.67,0.027
		c-0.228-0.093-0.335-0.25-0.335-0.478c-0.038-1.188-0.427-1.981-1.175-2.373c-0.746-0.392-1.64-0.586-2.678-0.586
		c-0.524,0-1.063,0.027-1.623,0.082c-0.557,0.06-1.12,0.123-1.677,0.195c-0.519,0.079-0.914,0.13-1.172,0.168
		c-0.263,0.038-0.634,0.057-1.117,0.057v10.224h7.875c0.187,0,0.47-0.12,0.84-0.364c0.37-0.239,0.65-0.456,0.834-0.642
		c0.228-0.149,0.47-0.175,0.73-0.08c0.261,0.091,0.393,0.25,0.393,0.473v0.668c0,0.41-0.012,0.889-0.029,1.426
		c-0.022,0.539-0.066,1.079-0.139,1.619c-0.079,0.542-0.196,1.043-0.363,1.507c-0.169,0.467-0.402,0.793-0.699,0.982
		c-0.225,0.148-0.447,0.176-0.672,0.083c-0.223-0.095-0.335-0.255-0.335-0.474c0.039-1.155-0.306-1.928-1.033-2.32
		c-0.726-0.391-1.611-0.589-2.653-0.589c-0.299,0-0.599,0.012-0.893,0.031c-0.299,0.019-0.615,0.046-0.952,0.083
		c-0.299,0.036-0.595,0.067-0.892,0.084c-0.3,0.018-0.615,0.027-0.952,0.027c-0.188,0-0.372,0-0.558,0
		c-0.148,0-0.313-0.017-0.502-0.056v10.335c0,1.416,0.231,2.381,0.701,2.91c0.461,0.519,1.402,0.744,2.818,0.666
		c0.371,0,0.579,0.155,0.612,0.474c0.037,0.316-0.128,0.495-0.5,0.531c-0.931,0.077-1.86,0.111-2.792,0.111
		c-0.934,0-1.866,0-2.794,0c-0.97,0-1.929-0.008-2.881-0.029c-0.945-0.016-1.905-0.047-2.874-0.082c-0.337,0-0.523-0.146-0.56-0.446
		c-0.036-0.298,0.113-0.48,0.45-0.559c0.591-0.074,1.07-0.167,1.419-0.277c0.356-0.114,0.626-0.281,0.811-0.505
		c0.187-0.222,0.309-0.539,0.369-0.95c0.052-0.41,0.079-0.969,0.079-1.677v-22.734c0-0.712-0.175-1.177-0.532-1.4
		c-0.352-0.225-0.734-0.37-1.143-0.445c-0.3-0.076-0.587-0.162-0.867-0.253c-0.282-0.094-0.568-0.213-0.865-0.363
		c-0.298-0.075-0.417-0.243-0.364-0.504c0.054-0.258,0.253-0.39,0.588-0.39c1.788,0.077,3.536,0.112,5.249,0.112
		c1.754,0,3.522,0,5.309,0h6.313c0.411,0,0.818-0.027,1.229-0.083c0.409-0.058,0.8-0.18,1.173-0.361l0.895,0.498
		C52.004,233.315,52.004,233.333,52.004,233.444z"/>
	<path fill="#FFFFFF" d="M82.541,230.882c-0.103,1.143-0.279,2.251-0.53,3.329c-0.087,0.292-0.338,0.436-0.755,0.436
		c-0.37,0-0.595-0.144-0.68-0.436c-0.378-1.909-1.174-3.178-2.398-3.799c-1.225-0.619-2.711-0.935-4.458-0.935
		c-0.457,0-0.868,0.011-1.244,0.032c-0.368,0.021-0.765,0.054-1.181,0.096c-0.376,0.039-0.796,0.067-1.28,0.09
		c-0.474,0.019-0.881,0.032-1.213,0.032c-0.331,0-0.687,0-1.058,0c-0.333,0-0.641-0.02-0.936-0.063v35.38
		c0,0.128,0.031,0.432,0.093,0.91c0.062,0.477,0.128,0.963,0.187,1.459c0.064,0.502,0.137,0.96,0.216,1.375
		c0.087,0.415,0.148,0.641,0.194,0.682c0.414,0.418,0.829,0.666,1.241,0.75c0.416,0.083,0.813,0.146,1.187,0.189
		c0.582,0.04,1.074,0.101,1.491,0.184c0.416,0.087,0.728,0.334,0.94,0.745c0.119,0.212,0.119,0.385,0,0.528
		c-0.127,0.146-0.338,0.221-0.626,0.221c-2.534,0-5.056,0.019-7.57,0.065c-2.512,0.033-5.031,0.021-7.567-0.065
		c-0.417-0.039-0.646-0.206-0.687-0.502c-0.04-0.289,0.146-0.472,0.561-0.555c0.875-0.169,1.559-0.349,2.057-0.529
		c0.5-0.188,0.873-0.47,1.122-0.84c0.246-0.377,0.407-0.854,0.466-1.435c0.06-0.582,0.097-1.375,0.097-2.369v-36.317h-9.657
		c-1.206,0-2.157,0.619-3.067,1.471c-0.42,0.394-0.854,1.018-1.523,1.437c-0.277,0.175-0.374,0.313-0.6,0.44
		c-0.421,0.232-1.293,0.074-1.293,0c0-0.748-0.184-1.862,0.065-2.757c0.249-0.894,0.519-1.795,0.813-2.71
		c0.125-0.376,0.217-0.724,0.278-1.059c0.062-0.33,0.133-0.665,0.22-0.996c0.079-0.21,0.239-0.342,0.464-0.405
		c0.228-0.063,0.447-0.05,0.655,0.031c0.25,0.164,0.604,0.318,1.062,0.468c0.453,0.146,0.941,0.282,1.462,0.406
		c0.521,0.121,1.015,0.22,1.498,0.283c0.474,0.058,0.838,0.089,1.087,0.089h26.66c0.25,0,0.575-0.054,0.968-0.152
		c0.392-0.107,0.756-0.199,1.091-0.281c0.205-0.083,0.441-0.139,0.71-0.156c0.272-0.021,0.512-0.053,0.722-0.095
		c0.207-0.041,0.405-0.021,0.591,0.062c0.187,0.082,0.28,0.229,0.28,0.435v1.371C82.694,228.588,82.642,229.737,82.541,230.882z"/>
	<path fill="#FFFFFF" d="M109.776,264.802c-0.686-0.048-1.364-0.056-2.032-0.038c-0.668,0.026-1.323,0.038-1.972,0.038h-2.708
		c-0.614,0-1.391-0.026-2.325-0.069c-0.938-0.048-1.659-0.227-2.165-0.543l0.598-1.076c0.287,0.18,0.488,0.27,0.593,0.27
		c0.287,0,0.531-0.144,0.729-0.436c0.2-0.296,0.362-0.665,0.489-1.115c0.126-0.446,0.215-0.909,0.27-1.38
		c0.055-0.473,0.082-0.89,0.082-1.249v-13.413H83.589v13.277c0,1.709,0.236,2.877,0.708,3.506c0.467,0.629,1.388,0.899,2.756,0.81
		l0.055,1.213c-0.937,0.046-1.847,0.079-2.731,0.096c-0.884,0.027-1.776,0.041-2.676,0.041c-0.939,0-1.859-0.014-2.762-0.041
		c-0.9-0.017-1.818-0.05-2.759-0.096c-0.361,0-0.56-0.178-0.593-0.539c-0.039-0.36,0.122-0.584,0.486-0.674
		c0.576-0.13,1.035-0.258,1.379-0.371c0.345-0.108,0.604-0.314,0.783-0.609c0.182-0.289,0.298-0.684,0.351-1.175
		c0.056-0.495,0.084-1.169,0.084-2.024v-27.367c0-1.033-0.198-1.662-0.596-1.888c-0.397-0.223-0.792-0.358-1.193-0.403
		c-0.356-0.044-0.694-0.113-1-0.202c-0.304-0.09-0.546-0.315-0.73-0.675c-0.14-0.223-0.159-0.424-0.054-0.606
		c0.112-0.181,0.306-0.271,0.598-0.271c1.732,0,3.478,0.012,5.246,0.035c1.767,0.021,3.52,0.125,5.25,0.301
		c0.359,0.048,0.529,0.248,0.515,0.608c-0.02,0.363-0.21,0.539-0.569,0.539c-0.613,0.049-1.189,0.26-1.731,0.641
		c-0.542,0.383-0.814,1-0.814,1.856v11.187h17.747v-11.121c0-0.539-0.065-0.966-0.189-1.281c-0.127-0.313-0.29-0.56-0.485-0.741
		c-0.199-0.181-0.417-0.292-0.649-0.336c-0.237-0.046-0.464-0.067-0.68-0.067c-0.431-0.088-0.799-0.157-1.108-0.205
		c-0.305-0.043-0.497-0.313-0.57-0.807c-0.069-0.448,0.126-0.676,0.597-0.676c1.766,0,3.534,0.023,5.302,0.067
		c1.763,0.05,3.515,0.137,5.247,0.271c0.362,0.044,0.548,0.227,0.568,0.538c0.021,0.316-0.154,0.518-0.515,0.605
		c-0.684,0.138-1.287,0.34-1.811,0.608c-0.521,0.27-0.783,0.921-0.783,1.957v27.297c0,0.181,0.014,0.464,0.052,0.845
		c0.036,0.381,0.09,0.786,0.164,1.214c0.074,0.426,0.153,0.818,0.246,1.181c0.086,0.355,0.189,0.56,0.294,0.603
		c0.179,0.048,0.366,0.085,0.567,0.103c0.198,0.024,0.391,0.032,0.567,0.032c0.328,0,0.655,0.037,1.006,0.101
		c0.339,0.067,0.673,0.262,1,0.577L109.776,264.802z"/>
	<path fill="#FFFFFF" d="M133.792,264.261l-0.541,0.27c-0.265,0.09-0.782,0.134-1.55,0.134c-0.761,0-1.58-0.011-2.46-0.036
		c-0.877-0.021-1.702-0.042-2.49-0.065c-0.79-0.021-1.342-0.032-1.656-0.032c-0.718,0-1.438,0.011-2.155,0.032
		c-0.718,0.023-1.44,0.033-2.159,0.033c-1.613,0-3.233,0.012-4.851,0.032c-1.621,0.025-3.21-0.008-4.787-0.098
		c-0.404-0.045-0.599-0.261-0.572-0.642c0.022-0.38,0.232-0.576,0.642-0.576c1.256-0.044,2.088-0.438,2.492-1.176
		c0.407-0.742,0.605-1.72,0.605-2.934v-27.638c0-0.763-0.208-1.269-0.641-1.515c-0.422-0.248-0.882-0.418-1.377-0.506
		c-0.361-0.091-0.735-0.182-1.116-0.271c-0.385-0.089-0.746-0.246-1.11-0.471c-0.361-0.18-0.476-0.404-0.336-0.677
		c0.135-0.265,0.404-0.403,0.808-0.403c0.405,0,0.931,0.012,1.584,0.035c0.653,0.024,1.382,0.032,2.188,0.032
		c1.305,0.05,2.721,0.082,4.247,0.103c1.534,0.022,3.083,0.034,4.654,0.034c2.247,0,4.29-0.046,6.132-0.137
		c1.845-0.088,3.079-0.246,3.707-0.469c0.317-0.091,0.588-0.07,0.808,0.063c0.228,0.137,0.319,0.317,0.273,0.542
		c-0.091,0.853-0.224,1.642-0.402,2.36c-0.182,0.717-0.361,1.438-0.541,2.153c-0.091,0.316-0.157,0.609-0.2,0.88
		c-0.051,0.268-0.115,0.535-0.204,0.808c-0.093,0.313-0.361,0.472-0.806,0.472c-0.452,0-0.701-0.179-0.747-0.538
		c-0.043-0.765-0.222-1.37-0.539-1.82c-0.315-0.449-0.72-0.797-1.212-1.046c-0.493-0.248-1.058-0.414-1.685-0.503
		c-0.629-0.092-1.26-0.138-1.888-0.138c-0.361,0-0.705,0.014-1.042,0.034c-0.342,0.022-0.688,0.035-1.046,0.035
		c-0.312,0-0.653,0.013-1.012,0.033c-0.358,0.022-0.72,0.035-1.082,0.035h-1.21v12.874h8.087c0.227,0,0.516-0.081,0.878-0.237
		c0.357-0.158,0.745-0.303,1.146-0.44h-0.067c0.362-0.179,0.685-0.425,0.979-0.741c0.292-0.312,0.571-0.514,0.841-0.605
		c0.312-0.087,0.573-0.058,0.775,0.101c0.202,0.158,0.28,0.351,0.238,0.575c-0.094,0.585-0.169,1.279-0.238,2.089
		c-0.066,0.811-0.147,1.504-0.236,2.091c-0.088,0.538-0.179,1.074-0.27,1.618c-0.086,0.537-0.177,1.12-0.269,1.748
		c-0.047,0.229-0.2,0.385-0.471,0.475c-0.271,0.091-0.519,0.041-0.746-0.137c-0.536-0.312-0.794-0.524-0.775-0.639
		c0.026-0.109,0.014-0.28-0.027-0.506c-0.135-0.404-0.282-0.786-0.442-1.144c-0.156-0.358-0.302-0.587-0.438-0.677
		c-0.225-0.177-0.673-0.326-1.347-0.437c-0.675-0.112-1.429-0.193-2.258-0.234c-0.833-0.046-1.653-0.068-2.46-0.068
		c-0.808,0-1.481,0-2.026,0h-0.874v13.077c0.718,0.985,1.732,1.707,3.034,2.156c1.304,0.448,2.536,0.676,3.708,0.676
		c1.438,0,2.763-0.347,3.974-1.048c1.218-0.694,2.021-1.829,2.431-3.404c0.042-0.135,0.154-0.236,0.335-0.305
		c0.18-0.067,0.361-0.088,0.537-0.067c0.183,0.024,0.347,0.093,0.505,0.205c0.158,0.112,0.216,0.235,0.17,0.369L133.792,264.261z"/>
	<path fill="#FFFFFF" d="M189.542,249.969c-0.517,0.178-0.987,0.396-1.402,0.669c-0.422,0.269-0.753,0.628-1,1.068
		c-0.246,0.445-0.368,1.012-0.368,1.699v18.407c0,0.249-0.124,0.421-0.371,0.521c-1.179,0.886-2.478,1.587-3.883,2.104
		c-1.404,0.517-2.868,0.927-4.393,1.221c-1.533,0.3-3.058,0.479-4.584,0.553c-1.528,0.08-2.984,0.112-4.363,0.112
		c-2.221,0-4.387-0.072-6.507-0.218c-3.839-0.3-7.337-1.321-10.494-3.069c-3.155-1.751-5.851-3.966-8.093-6.652
		c-2.241-2.687-3.969-5.729-5.175-9.134c-1.21-3.397-1.811-6.919-1.811-10.566c0-4.389,0.796-8.268,2.402-11.645
		c1.6-3.374,3.771-6.208,6.504-8.498c2.736-2.294,5.939-4.018,9.608-5.177c3.67-1.155,7.58-1.736,11.718-1.736
		c2.216,0,4.445,0.123,6.688,0.371c2.24,0.243,4.423,0.516,6.544,0.812c0.984,0.146,1.932,0.294,2.844,0.444
		c0.917,0.146,1.859,0.271,2.849,0.37c0.245,0,0.441,0.074,0.593,0.221c0.146,0.148,0.22,0.295,0.22,0.44v0.964
		c0,0.79-0.027,1.812-0.074,3.066c-0.048,1.259-0.146,2.493-0.297,3.696c-0.148,1.209-0.354,2.293-0.624,3.254
		c-0.276,0.962-0.608,1.539-0.999,1.737c-0.297,0.099-0.567,0.11-0.812,0.035c-0.252-0.076-0.396-0.233-0.443-0.479
		c-0.346-2.072-1.015-3.845-1.995-5.322c-0.992-1.479-2.198-2.697-3.626-3.659c-1.429-0.963-3.029-1.665-4.802-2.11
		c-1.778-0.442-3.623-0.662-5.549-0.662c-3.299,0-6.366,0.542-9.201,1.627c-2.832,1.083-5.299,2.62-7.39,4.621
		c-2.099,1.991-3.734,4.386-4.916,7.166c-1.183,2.788-1.778,5.855-1.778,9.205c0,2.318,0.326,4.583,0.965,6.803
		c0.639,2.215,1.513,4.347,2.622,6.391c1.107,2.049,2.44,3.934,3.995,5.655c1.551,1.729,3.239,3.23,5.063,4.512
		c0.837,0.592,1.811,1.092,2.918,1.513c1.109,0.42,2.253,0.762,3.437,1.034c1.185,0.269,2.379,0.48,3.585,0.629
		c1.208,0.146,2.304,0.225,3.289,0.225c1.477,0,2.98-0.159,4.509-0.483c1.529-0.32,2.855-1.043,3.996-2.179v-16.339
		c0-0.981-0.313-1.673-0.929-2.068c-0.614-0.395-1.27-0.712-1.959-0.961c-0.492-0.147-0.96-0.284-1.401-0.406
		c-0.445-0.122-0.889-0.306-1.335-0.558c-0.395-0.191-0.528-0.451-0.404-0.773c0.122-0.32,0.404-0.478,0.851-0.478
		c2.91,0,5.805,0.023,8.686,0.07c2.887,0.054,5.773,0.147,8.684,0.301l0.075,1.252C190.615,249.663,190.057,249.797,189.542,249.969
		z"/>
	<path fill="#FFFFFF" d="M229.895,268.746c-1.741,0-3.315-0.278-4.713-0.851c-1.39-0.566-2.661-1.317-3.809-2.247
		c-1.145-0.927-2.215-1.987-3.205-3.174c-1-1.19-1.972-2.405-2.917-3.649c-0.85-1.132-1.693-2.219-2.539-3.25
		c-0.846-1.034-1.748-1.962-2.691-2.789c-0.847-0.776-1.928-1.257-3.247-1.435c-1.317-0.183-2.527-0.273-3.62-0.273
		c-0.405,0-0.667-0.011-0.79-0.039c-0.122-0.027-0.385-0.013-0.786,0.039v10.229c0,0.209,0.044,0.535,0.115,0.973
		c0.074,0.436,0.164,0.9,0.261,1.393c0.101,0.49,0.21,0.933,0.334,1.319c0.127,0.39,0.238,0.605,0.34,0.656
		c0.152,0.104,0.377,0.154,0.671,0.154c0.352,0,0.646,0.03,0.896,0.079c0.452,0.05,0.913,0.113,1.385,0.194
		c0.475,0.08,0.907,0.269,1.307,0.581c0.399,0.205,0.524,0.465,0.375,0.772c-0.15,0.313-0.455,0.466-0.898,0.466
		c-2.542,0-5.062-0.008-7.577-0.038c-2.522-0.025-5.046-0.114-7.587-0.272c-0.452-0.049-0.685-0.271-0.708-0.657
		c-0.031-0.389,0.188-0.634,0.632-0.735c0.796-0.107,1.431-0.222,1.905-0.35c0.475-0.129,0.834-0.35,1.085-0.655
		c0.249-0.316,0.411-0.761,0.492-1.359c0.069-0.595,0.104-1.383,0.104-2.363v-31.468c0-1.239-0.264-1.986-0.785-2.245
		c-0.523-0.257-1.053-0.415-1.605-0.465c-0.546-0.051-1.024-0.131-1.413-0.236c-0.402-0.102-0.728-0.36-0.977-0.774
		c-0.201-0.257-0.225-0.484-0.076-0.695c0.152-0.207,0.424-0.312,0.826-0.312h1.119c0.546,0,1.12,0,1.717,0
		c0.599,0,1.194,0.029,1.793,0.081c0.797,0.048,1.545,0.072,2.241,0.072c0.699,0,1.442,0,2.239,0h1.574
		c0.496,0,0.98-0.012,1.453-0.036c0.476-0.023,0.98-0.036,1.532-0.036c1.843,0,3.771,0.103,5.792,0.308
		c2.016,0.206,3.845,0.671,5.485,1.394c1.642,0.728,3,1.783,4.072,3.181c1.069,1.396,1.605,3.28,1.605,5.656
		c0,1.188-0.214,2.379-0.632,3.568c-0.425,1.186-0.974,2.32-1.643,3.407c-0.675,1.082-1.424,2.105-2.241,3.061
		c-0.823,0.957-1.664,1.823-2.506,2.599c0.746,0.773,1.484,1.588,2.206,2.44c0.72,0.854,1.453,1.741,2.203,2.673
		c1.196,1.502,2.464,3.024,3.81,4.575c1.342,1.548,2.738,2.942,4.184,4.181c1.445,1.241,2.916,2.237,4.402,2.99
		c1.5,0.745,2.991,1.016,4.483,0.811l0.452,1.316C234.122,268.335,232.081,268.746,229.895,268.746z M213.646,234.608
		c-0.423-1.314-1.045-2.467-1.863-3.446c-0.827-0.983-1.812-1.773-2.954-2.364c-1.146-0.596-2.418-0.893-3.809-0.893
		c-1.2,0-2.345,0.156-3.442,0.465v18.677c0.847,0.108,1.735,0.181,2.657,0.233c0.916,0.053,1.806,0.081,2.65,0.081
		c2.438,0,4.282-0.779,5.531-2.327c1.244-1.554,1.863-3.646,1.863-6.281C214.279,237.312,214.068,235.925,213.646,234.608z"/>
	<path fill="#FFFFFF" d="M246.697,262.045l-0.536,0.27c-0.268,0.088-0.79,0.132-1.55,0.132c-0.77,0-1.585-0.008-2.46-0.036
		c-0.88-0.02-1.711-0.04-2.498-0.064c-0.787-0.02-1.335-0.031-1.651-0.031c-0.72,0-1.438,0.012-2.155,0.031
		c-0.718,0.024-1.44,0.033-2.155,0.033c-1.619,0-3.239,0.012-4.856,0.031c-1.615,0.028-3.212-0.008-4.785-0.096
		c-0.407-0.044-0.598-0.26-0.571-0.643c0.021-0.382,0.234-0.576,0.639-0.576c1.261-0.043,2.091-0.435,2.492-1.176
		c0.407-0.741,0.61-1.718,0.61-2.936v-27.636c0-0.761-0.214-1.268-0.641-1.516c-0.431-0.246-0.89-0.415-1.383-0.503
		c-0.362-0.092-0.732-0.181-1.115-0.273c-0.38-0.087-0.751-0.247-1.108-0.469c-0.362-0.18-0.475-0.405-0.339-0.677
		c0.139-0.265,0.404-0.403,0.81-0.403c0.4,0,0.93,0.009,1.583,0.032c0.651,0.026,1.38,0.034,2.193,0.034
		c1.299,0.049,2.715,0.082,4.247,0.103c1.523,0.021,3.073,0.033,4.646,0.033c2.248,0,4.291-0.044,6.134-0.136
		c1.841-0.09,3.078-0.246,3.707-0.469c0.314-0.093,0.589-0.068,0.812,0.064c0.222,0.137,0.313,0.314,0.27,0.54
		c-0.091,0.854-0.225,1.642-0.404,2.36c-0.18,0.72-0.363,1.439-0.54,2.154c-0.093,0.317-0.158,0.608-0.198,0.879
		c-0.051,0.27-0.119,0.536-0.209,0.81c-0.088,0.312-0.359,0.471-0.809,0.471c-0.448,0-0.695-0.181-0.739-0.54
		c-0.049-0.764-0.225-1.369-0.539-1.82c-0.314-0.447-0.722-0.795-1.212-1.044c-0.495-0.246-1.059-0.414-1.688-0.505
		c-0.63-0.092-1.26-0.137-1.886-0.137c-0.356,0-0.708,0.013-1.044,0.033c-0.34,0.023-0.686,0.036-1.045,0.036
		c-0.315,0-0.654,0.012-1.012,0.033c-0.362,0.022-0.719,0.034-1.082,0.034h-1.208v12.875h8.09c0.222,0,0.515-0.08,0.875-0.235
		c0.356-0.158,0.736-0.303,1.144-0.44h-0.07c0.365-0.18,0.689-0.426,0.982-0.743c0.287-0.309,0.569-0.513,0.842-0.605
		c0.313-0.089,0.571-0.056,0.775,0.101c0.203,0.16,0.274,0.35,0.237,0.575c-0.093,0.585-0.169,1.281-0.237,2.089
		c-0.067,0.811-0.146,1.506-0.235,2.09c-0.091,0.538-0.183,1.076-0.269,1.619c-0.096,0.537-0.184,1.121-0.271,1.75
		c-0.046,0.229-0.204,0.385-0.474,0.473c-0.269,0.091-0.518,0.043-0.742-0.137c-0.538-0.312-0.796-0.524-0.772-0.636
		c0.02-0.112,0.012-0.282-0.034-0.51c-0.139-0.403-0.284-0.786-0.439-1.144c-0.157-0.358-0.302-0.585-0.436-0.677
		c-0.228-0.177-0.676-0.323-1.353-0.435c-0.673-0.113-1.426-0.19-2.255-0.234c-0.833-0.046-1.648-0.07-2.465-0.07
		c-0.807,0-1.478,0-2.019,0h-0.874v13.077c0.716,0.989,1.728,1.709,3.03,2.155c1.305,0.452,2.539,0.677,3.706,0.677
		c1.441,0,2.764-0.345,3.979-1.043c1.211-0.697,2.024-1.832,2.426-3.406c0.046-0.137,0.158-0.233,0.335-0.305
		c0.183-0.069,0.361-0.09,0.546-0.069c0.175,0.025,0.346,0.097,0.502,0.203c0.158,0.115,0.213,0.239,0.168,0.372L246.697,262.045z"
		/>
	<path fill="#FFFFFF" d="M274.405,262.045l-0.541,0.27c-0.269,0.088-0.787,0.132-1.554,0.132c-0.765,0-1.579-0.008-2.456-0.036
		c-0.878-0.02-1.709-0.04-2.492-0.064c-0.792-0.02-1.34-0.031-1.657-0.031c-0.721,0-1.438,0.012-2.154,0.031
		c-0.72,0.024-1.437,0.033-2.157,0.033c-1.62,0-3.237,0.012-4.854,0.031c-1.617,0.028-3.208-0.008-4.785-0.096
		c-0.406-0.044-0.598-0.26-0.572-0.643c0.022-0.382,0.235-0.576,0.643-0.576c1.255-0.043,2.088-0.435,2.489-1.176
		c0.407-0.741,0.608-1.718,0.608-2.936v-27.636c0-0.761-0.211-1.268-0.64-1.516c-0.428-0.246-0.887-0.415-1.382-0.503
		c-0.362-0.092-0.73-0.181-1.113-0.273c-0.382-0.087-0.753-0.247-1.112-0.469c-0.357-0.18-0.471-0.405-0.337-0.677
		c0.136-0.265,0.404-0.403,0.809-0.403c0.403,0,0.932,0.009,1.584,0.032c0.65,0.026,1.382,0.034,2.191,0.034
		c1.304,0.049,2.717,0.082,4.246,0.103c1.528,0.021,3.077,0.033,4.648,0.033c2.252,0,4.293-0.044,6.135-0.136
		c1.847-0.09,3.081-0.246,3.713-0.469c0.313-0.093,0.582-0.068,0.807,0.064c0.224,0.137,0.317,0.314,0.27,0.54
		c-0.091,0.854-0.228,1.642-0.406,2.36c-0.178,0.72-0.356,1.439-0.538,2.154c-0.09,0.317-0.155,0.608-0.2,0.879
		c-0.049,0.27-0.116,0.536-0.204,0.81c-0.091,0.312-0.359,0.471-0.809,0.471s-0.698-0.181-0.741-0.54
		c-0.044-0.764-0.226-1.369-0.538-1.82c-0.316-0.447-0.724-0.795-1.217-1.044c-0.491-0.246-1.057-0.414-1.686-0.505
		c-0.627-0.092-1.257-0.137-1.889-0.137c-0.355,0-0.702,0.013-1.038,0.033c-0.342,0.023-0.691,0.036-1.047,0.036
		c-0.316,0-0.653,0.012-1.013,0.033c-0.359,0.022-0.719,0.034-1.076,0.034h-1.214v12.875h8.089c0.221,0,0.517-0.08,0.873-0.235
		c0.36-0.158,0.744-0.303,1.147-0.44h-0.068c0.361-0.18,0.688-0.426,0.979-0.743c0.292-0.309,0.572-0.513,0.845-0.605
		c0.312-0.089,0.569-0.056,0.775,0.101c0.196,0.16,0.276,0.35,0.233,0.575c-0.091,0.585-0.165,1.281-0.233,2.089
		c-0.07,0.811-0.149,1.506-0.237,2.09c-0.091,0.538-0.182,1.076-0.27,1.619c-0.091,0.537-0.181,1.121-0.269,1.75
		c-0.048,0.229-0.204,0.385-0.476,0.473c-0.268,0.091-0.517,0.043-0.739-0.137c-0.54-0.312-0.798-0.524-0.775-0.636
		c0.019-0.112,0.012-0.282-0.031-0.51c-0.137-0.403-0.287-0.786-0.439-1.144c-0.158-0.358-0.306-0.585-0.441-0.677
		c-0.219-0.177-0.672-0.323-1.349-0.435c-0.673-0.113-1.425-0.19-2.251-0.234c-0.838-0.046-1.656-0.07-2.467-0.07
		c-0.807,0-1.479,0-2.021,0h-0.874v13.077c0.716,0.989,1.729,1.709,3.034,2.155c1.304,0.452,2.535,0.677,3.706,0.677
		c1.438,0,2.76-0.345,3.977-1.043c1.212-0.697,2.022-1.832,2.425-3.406c0.043-0.137,0.158-0.233,0.336-0.305
		c0.186-0.069,0.36-0.09,0.547-0.069c0.173,0.025,0.343,0.097,0.502,0.203c0.157,0.115,0.21,0.239,0.166,0.372L274.405,262.045z"/>
	<path fill="#FFFFFF" d="M327.105,223.147c-0.49,0.059-0.897,0.146-1.227,0.264h0.08c-0.648,0.176-1.303,0.414-1.957,0.705
		c-0.649,0.294-0.975,0.765-0.975,1.411c0,1.88,0,3.733,0,5.554c0,1.762,0.023,3.558,0.076,5.376c0,1.7,0.017,3.569,0.04,5.597
		c0.028,2.024,0.048,3.866,0.048,5.508c0,3.759-0.057,7.479-0.164,11.146c-0.116,3.673-0.334,7.36-0.659,11.068
		c-0.047,0.352-0.244,0.567-0.569,0.659c-0.328,0.088-0.652,0.037-0.98-0.136c-6.096-4.938-11.854-10.206-17.273-15.819
		c-5.417-5.612-10.736-11.266-15.961-16.965h0.077l-4.244-4.494c-0.055,0.528-0.083,1.058-0.083,1.588c0,0.529,0,1.083,0,1.669
		c0,2.237,0.045,4.44,0.124,6.615c0.079,2.172,0.172,4.374,0.282,6.607c0.117,2.176,0.194,4.353,0.247,6.523
		c0.06,2.173,0.083,4.38,0.083,6.61c0,1.002,0.082,1.806,0.243,2.423c0.167,0.62,0.394,1.07,0.698,1.363
		c0.296,0.301,0.619,0.504,0.979,0.623c0.354,0.116,0.717,0.204,1.102,0.26c0.492,0.118,1.006,0.222,1.552,0.306
		c0.539,0.091,1.06,0.347,1.555,0.753c0.433,0.239,0.566,0.528,0.408,0.882c-0.167,0.353-0.494,0.532-0.988,0.532
		c-0.921-0.062-1.878-0.075-2.852-0.052c-0.983,0.038-1.935,0.052-2.863,0.052h-2.855c-1.256,0-2.489-0.033-3.714-0.089
		c-1.229-0.063-2.412-0.239-3.555-0.526c-0.488-0.121-0.692-0.414-0.609-0.882c0.083-0.479,0.368-0.711,0.855-0.711h0.98
		c0.926,0.12,1.716-0.137,2.369-0.754c0.655-0.613,0.978-1.503,0.978-2.68V222.53c0-0.473,0.139-0.866,0.411-1.188
		c0.269-0.321,0.544-0.604,0.812-0.836c0.17-0.122,0.373-0.166,0.614-0.135c0.245,0.031,0.42,0.104,0.533,0.22
		c6.257,6.228,12.465,12.503,18.615,18.818c6.154,6.317,12.278,12.709,18.378,19.167c0.052-1.816,0.052-3.599,0-5.33
		c-0.056-1.732-0.113-3.509-0.166-5.331c-0.106-1.469-0.192-3.027-0.247-4.674c-0.048-1.643-0.081-3.2-0.081-4.671
		c0-0.941,0.014-1.852,0.043-2.732c0.029-0.884,0.038-1.791,0.038-2.729v-5.379c0-0.939-0.107-1.688-0.324-2.247
		c-0.219-0.56-0.49-0.969-0.813-1.235c-0.328-0.265-0.683-0.44-1.063-0.527c-0.38-0.09-0.758-0.165-1.146-0.221
		c-1.033-0.118-1.879-0.381-2.531-0.794c-0.38-0.176-0.485-0.439-0.323-0.792c0.161-0.355,0.459-0.53,0.897-0.53l2.934-0.087
		c2.021-0.056,4.005-0.047,5.964,0.045c1.96,0.089,3.922,0.189,5.88,0.309L327.105,223.147z"/>
	<path fill-rule="evenodd" clip-rule="evenodd" fill="#FFFFFF" d="M126.222,171.716c-1.998,0.213-2.039,1.814-2.322,3.131
		c-1.849,8.559,4.645,17.378,13.815,18.689c5.17,0.742,10.179,0.064,14.83-2.127c6.907-3.252,10.032-8.715,9.603-16
		c-0.375-6.332-3.151-11.888-6.801-17.132c-0.75-1.08-1.3-2.284-1.937-3.433l-0.069-0.005c-0.216-0.08-0.478-0.115-0.643-0.253
		c-3.529-3.015-7.044-6.045-10.677-9.173c5.853-9.526,12.907-18.327,21.064-26.303c8.342-8.157,18.31-9.243,29.336-5.299
		c4.297,1.537,8.195,3.722,11.498,6.776c1.327,1.225,2.589,2.584,3.564,4.069c5.652,8.597,0.773,15.371-6.002,18.089
		c-2.354,0.945-5.357,0.491-7.963,0.667c1.143,0.76,2.716,1.131,4.491,1.064c10.152-0.381,16.291-10.393,11.574-19.006
		c-1.06-1.935-2.438-3.714-3.672-5.566l0.095,0.115c-0.926-0.635-1.888-1.219-2.765-1.905c-6.106-4.802-12.975-7.834-20.92-8.205
		c-7.93-0.374-14.784,2.107-20.427,7.278c-2.553,2.336-4.846,4.922-7.623,7.281c0.376-0.876,0.719-1.765,1.123-2.631
		c3.706-7.868,7.327-15.772,11.156-23.58c2.966-6.055,6.669-11.704,11.302-16.746c9.202-10.01,21.142-14.275,35-14.34
		c12.584-0.061,24.175,3.782,35.414,8.889c0.945,0.428,1.83,0.987,2.796,1.354c3.266,1.233,5.464,3.09,6.688,6.511
		c1.621,4.513,5.461,7.327,10.26,8.831c1.217,0.381,2.439,0.723,3.658,1.092c6.963,2.133,13.5,4.861,17.438,11.963
		c0.661-4.186,0.02-7.624-1.57-10.833c-4.732-9.568-13.177-14.636-23.612-16.996c-1.707-0.388-3.749-0.103-5.44,0.423
		c-1.507,0.469-2.597,0.306-3.874-0.395c-7.907-4.352-16.254-7.694-25.06-9.926c-13.146-3.335-26.115-3.726-38.702,1.691
		c-8.781,3.772-15.333,9.866-20.488,17.435c-1.658,2.436-3.196,4.946-4.855,7.515c1.599-9.326,3.156-18.437,4.783-27.946
		c3.243-0.341,6.885-0.706,10.522-1.103c5.965-0.652,11.984-1.042,17.868-2.079c4.384-0.774,8.83-1.921,12.816-3.736
		c9.869-4.494,14.938-12.223,15.195-22.736c0.023-0.879,0.162-1.768,0.057-2.631c-0.195-1.618,0.134-2.879,1.449-4.09
		c1.43-1.32,1.854-3.191,1.828-5.141c-0.161-11.467-9.541-22.097-21.466-24.261c-0.164-0.029-0.37,0.164-0.809,0.373
		c5.962,4.55,7.203,10.838,7.492,17.426c0.198,4.533,2.362,7.989,6.167,10.618c1.316,0.909,2.735,1.679,4.071,2.498
		c2.046,12.534-5.028,22.899-14.852,27.034c-5.639,2.375-11.604,3.593-17.724,4.147c-7.13,0.647-14.279,1.131-21.419,1.67
		c-0.445,0.034-0.904-0.066-1.714-0.132c-0.195-12.233-2.547-23.982-9.689-34.838c5.42-1.258,10.355-1.147,15.292-0.931
		c1.62,0.072,3.232,0.316,4.853,0.417c2.96,0.183,5.41,0.807,7.483,3.375c2.741,3.392,6.767,4.894,11.389,4.746
		c2.307-0.071,4.641,0.057,6.938,0.315c4.465,0.499,8.602,1.857,12.424,5.476c-0.269-1.25-0.307-1.94-0.564-2.539
		c-3.404-7.867-10.001-12.027-18.352-13.91c-2.671-0.603-5.513-0.786-8.257-0.708c-1.629,0.045-3.361,0.753-4.78,1.573
		c-1.141,0.661-2.109,1.118-3.48,0.92c-7.846-1.139-15.692-1.231-23.742-0.168c-1.028-1.318-2.035-2.656-3.1-3.955
		c-6.858-8.389-15.042-15.099-25.793-18.605c-12.417-4.05-27.757,0.386-35.389,10.329c-4.555,5.941-5.383,12.069-0.876,18.629
		c3.22,4.69,6.958,8.598,12.942,9.966c2.968,0.679,5.62,0.539,8.679-0.603c-5.142-1.825-7.629-5.717-9.558-10.042
		c-0.681-1.526-1.297-3.079-1.854-4.648c-1.487-4.218-4.412-6.934-9.006-7.98c-0.439-0.1-0.862-0.275-1.816-0.583
		c1.213-1.778,2.162-3.485,3.411-4.956c8.597-10.065,23.949-13.386,36.439-7.674c9.489,4.336,16.624,11.281,22.481,19.483
		c0.174,0.239,0.164,0.597,0.315,1.189c-2.755,0.781-5.467,1.552-8.172,2.317l0.12-0.072c-0.866,0.528-1.704,1.116-2.609,1.577
		c-10.928,5.567-17.472,14.342-19.932,25.735c-1.363,6.305-1.999,12.78-2.642,19.21c-1.083,10.8-1.635,21.662-2.958,32.431
		c-0.77,6.301-2.929,12.368-6.063,18.018c-0.191,0.349-0.577,0.604-0.855,0.886c-2.22-1.439,0.316-1.896,0.502-3.04
		c-1.027-0.966-3.189-1.42-2.247-3.802c-2.159,0.38-3.828,0.058-5.4-1.681c-0.463,2.328-2.019,2.391-3.961,2.084
		c0.258,1.013,0.694,1.77,0.543,2.39c-0.152,0.633-0.882,1.13-1.49,1.84c1.096,1.071,3.365,1.45,2.416,3.624
		c1.856,0.554,4.088-0.93,4.735,1.94c1.458-1.085,1.898-3.302,4.087-1.429c-3.541,5.36-7.622,10.151-14.139,12.62
		c-7.479,2.834-14.922,5.752-22.387,8.617c-1.007,0.386-2.056,0.678-3.337,0.52c0.857-0.647,1.711-1.294,2.562-1.943
		c5.415-4.115,9.387-9.246,11.708-15.46c1.986-5.312,2.084-10.779,0.219-16.174c-1.521-4.394-3.355-8.698-5.185-12.99
		c-1.615-3.787-3.53-7.462-5.096-11.263c-1.095-2.66-1.995-5.419-2.676-8.197c-1.743-7.074,0.285-12.995,6.164-17.606l-0.089,0.067
		c5.903-5.403,13.099-7.911,21.263-8.075c3.184-0.065,6.254,0.656,8.751,2.732c0.919,0.761,1.581,1.804,2.442,2.817
		c-1.061,0.808-1.87,1.396-2.637,2.025c-3.415,2.809-4.709,6.316-3.761,10.599c0.527,2.368,1.079,4.739,1.393,7.132
		c0.565,4.274-0.038,8.313-3.192,11.797c4.135-0.506,7.632-2.18,10.319-5.033c5.837-6.203,6.891-13.599,3.722-21.153
		c-1.513-3.609-4.741-6.698-7.593-9.681c-2.008-2.098-5.091-2.627-8.019-2.823c-6.152-0.415-11.959,0.713-17.297,3.626
		c-1.489,0.812-2.932,1.69-4.396,2.534l0.089-0.027c-1.517,1.327-3.106,2.584-4.538,3.992c-4.581,4.502-6.719,9.934-5.488,16.189
		c0.802,4.076,2.124,8.107,3.629,12.024c1.75,4.551,4.021,8.925,5.95,13.421c2.153,5.018,3.901,10.133,4.259,15.59
		c0.413,6.244-1.703,11.627-5.675,16.405c-3.001,3.609-6.761,6.352-11.244,8.397c6.164-6.492,9.501-13.855,7.692-22.705
		c-1.746-8.545-6.376-15.539-13.315-20.634c-0.115-3.508-0.217-6.698-0.327-10.18c2.112,3.075,2.112,6.354,2.381,9.657
		c1.951-0.101,2.777-1.137,3.184-2.606c0.665-2.39-0.16-4.482-1.357-6.606c-1.128-1.997-1.931-4.156-2.879-6.242
		c-6.106,2.57-7.595,7.642-3.526,14.181c-1.935-0.61-3.608-1.214-5.322-1.665c-6.819-1.808-15.115,0.735-19.332,5.876
		c-2.902,3.543-2.975,7.207-0.209,10.778c-0.106-0.534-0.168-1.078-0.321-1.6c-1.32-4.454,0.058-7.901,3.934-10.603
		c7.092-4.943,15.753-4.639,22.975,1.109c6.556,5.21,9.996,12.077,11.463,19.901c0.128,0.684,0.067,1.396,0.09,2.021
		c-3.196,0.611-1.797-1.996-2.735-3.132c-1.991,0.984-3.109-0.421-4.435-1.616c-0.669,0.757-1.217,1.381-1.79,2.032
		c-0.706-0.283-1.332-0.535-1.988-0.796c0.834-1.215,1.562-2.281,2.292-3.348c-4.048,1.149-7.866,0.697-11.197-0.796
		c-5.463-2.443-10.226-2.157-14.784,1.376c5.833,5.934,13.77,7.204,22.365,3.453c0.431,0.68,0.876,1.381,1.311,2.067
		c-0.688,0.582-1.246,1.06-2.077,1.765c1.828,0.865,2.626,2.154,2.629,3.841c0,0.002-0.127-0.117-0.127-0.117
		c1.536,0.585,3.652-0.283,4.484,2.119c1.454-1.197,2.292-3.188,4.083-1.647c1.394-0.974-1.349-3.422,2.111-3.147
		c0.395,3.858-0.878,7.276-2.954,10.465c-2.098,3.227-5.158,5.542-8.503,7.501c-7.083,4.152-14.872,6.863-22.725,9.393
		c-1.364,0.441-2.946,0.352-4.433,0.405c-1.359,0.049-2.729-0.033-4.677-0.065c1.357,1.521,2.371,2.666,3.473,3.901
		c7.466-0.929,15.167,0.352,22.875,0.642c12.715,0.469,25.408,1.83,38.148,1.098c13.994-0.806,26.65-4.956,37.732-12.981
		c2.81-2.036,5.296-4.469,8.135-6.89c0.645,0.345,1.464,0.706,2.204,1.184c7.563,4.901,13.14,11.301,15.8,19.653
		c0.888,2.792,1.042,5.815,1.251,8.75c0.095,1.374-0.346,2.825-0.767,4.176c-2.252,7.246-11.698,12.043-21.064,10.766
		c-7.601-1.038-13.043-7.105-13.264-14.842c-0.06-2.106,0.215-4.155,1.718-5.848L126.222,171.716z M64.497,133.787
		c-0.402-0.014-0.804-0.035-1.714-0.075c0.784-1.115,1.179-2.082,1.929-2.622c0.564-0.411,1.63-0.519,2.365-0.34
		c2.16,0.524,3.108,1.934,2.573,3.475c-0.698,2.005-1.599,2.184-5.47,0.994c0.076-0.488,0.152-1.001,0.231-1.515L64.497,133.787z
		 M112.594,148.966c2.044-0.306,4.149,1.483,6.205-0.197c0.761-0.621,2.102-3.132,1.369-3.618c-1.351-0.904-1.536-3.075-3.837-2.865
		c4.851-1.776,14.726,0.136,20.221,3.761c-0.24,0.355-0.437,0.75-0.726,1.061c-10.155,10.811-23.057,16.316-38.291,17.056
		c-12.477,0.604-24.966,0.604-37.456-0.437c-3.356-0.281-6.717-0.483-10.075-0.722c1.041-0.887,2.104-1.228,3.19-1.49
		c6.7-1.617,13.413-3.194,20.108-4.829c10.542-2.573,20.714-5.838,29.648-12.01c3.084-2.131,7.191-2.35,11.171-2.447
		c-0.767,0.89-2.942,0.765-1.739,2.669c-1.351,1.071-0.668,1.708,0.474,2.455c0.239,0.158-0.096,1.117-0.163,1.708L112.594,148.966z
		 M136.428,42.073l-0.117,0.092c5.211-6.784,12.792-9.807,21.182-12.039c6.632,10.993,9.276,22.585,9.305,35.167
		c-20.083,1.157-35.243,8.74-42.079,27.584c-0.054-4.249,0.13-8.288,0.346-12.326c0.445-8.427,0.802-16.875,3.504-24.978
		C130.24,50.578,132.145,45.685,136.428,42.073z M166.627,67.125c0.041,1.145,0.11,1.896,0.083,2.642
		c-0.387,11.506-3.185,22.533-6.851,33.39c-3.912,11.594-9.898,22.296-15.424,33.19c-1.409,2.785-3.724,5.146-5.714,7.825
		c-9.962-4.418-20.02-5.361-30.719-3.45c0.519-0.787,0.658-1.101,0.893-1.326c7.575-7.326,11.84-16.203,13.457-26.345
		c1.351-8.476,3.946-16.594,7.293-24.531c3.091-7.328,8.045-12.975,15.641-16.18c4.282-1.807,8.826-3.128,13.359-4.324
		C161.129,67.359,163.837,67.411,166.627,67.125z M104.466,124.489c1.554-0.905,3.386-1.202,4.899-0.186
		c1.438,0.976,1.215,2.674,0.814,4.184c-1.648,0.892-3.484,1.06-4.951-0.03C104,127.536,103.881,125.967,104.466,124.489z
		 M116.357,147.89c-1.646-0.165-2.788-1.215-2.638-2.35c0.167-1.26,1.097-1.765,2.37-1.708c1.31,0.06,2.371,1.136,2.322,2.287
		C118.349,147.54,117.266,147.751,116.357,147.89z"/>
	<path fill-rule="evenodd" clip-rule="evenodd" fill="#FFFFFF" d="M160.125,276.5c-2.674,1.153-5.128,2.396-7.241,4.232
		c2.207-1.326,4.536-2.316,7.207-2.837c-1.263,1.253-2.394,2.423-3.582,3.534c-0.949,0.89-2.1,1.441-3.371,1.737
		c-1.068,0.25-2.132,0.511-3.168,1.479c0.083-0.7,0.091-1.19,0.205-1.647c0.452-1.816,1.561-3.193,2.977-4.354
		c1.815-1.487,3.852-2.36,6.241-2.248C159.596,276.406,159.798,276.453,160.125,276.5z"/>
	<path fill-rule="evenodd" clip-rule="evenodd" fill="#FFFFFF" d="M154.882,275.446c-4.49,1.148-8.78,2.007-13.193,1.933
		c4.055-0.551,7.95-1.563,11.843-3.376c-2.782-0.206-5.322-0.441-7.874-0.567c-2.046-0.1-4.029,0.337-5.927,1.145
		c-1.594,0.68-3.197,1.348-5.422,1.243c0.762,0.665,1.227,1.175,1.804,1.56c2.274,1.519,4.978,1.995,7.873,1.968
		c3.706-0.033,7.119-0.915,10.061-3.143C154.298,276.017,154.511,275.786,154.882,275.446z"/>
	<path fill-rule="evenodd" clip-rule="evenodd" fill="#FFFFFF" d="M164.619,274.805c-12.344-4.416-11.093-8.283-12.544-9.927
		c-1.275-1.444-1.981-3.164-2.089-5.176c-0.269-4.977,2.579-8.002,7.117-7.146c1.891,0.355,3.817,1.229,5.474,2.324
		c1.666,1.104,2.087,3.516,1.482,5.485c-0.552,1.796-1.983,2.934-3.75,2.778c-0.735-0.06-1.525-0.346-2.158-0.766
		c-1.249-0.836-1.76-2.718-0.998-3.727c1.105-1.455,2.235-1.035,3.453,0.447c-0.609,0.631-1.161,1.207-1.707,1.78
		c0.862,1.306,2.063,1.312,2.897,0.518c0.616-0.589,1.049-1.889,0.921-2.776c-0.156-1.071-0.816-2.237-1.563-3.014
		c-1.524-1.585-3.526-2.022-5.55-1.833c-2.677,0.248-4.287,2.36-4.239,5.327c0.042,2.665,0.979,5.054,2.847,6.692
		c2.311,2.029,4.718,4.201,7.415,5.371C167.764,273.833,164.984,274.937,164.619,274.805z"/>
</g>
</svg>
