<?xml version="1.0" encoding="utf-8"?>
<!-- Generator: Adobe Illustrator 16.0.0, SVG Export Plug-In . SVG Version: 6.00 Build 0)  -->
<!DOCTYPE svg PUBLIC "-//W3C//DTD SVG 1.1//EN" "http://www.w3.org/Graphics/SVG/1.1/DTD/svg11.dtd">
<svg version="1.1" id="Layer_1" xmlns="http://www.w3.org/2000/svg" xmlns:xlink="http://www.w3.org/1999/xlink" x="0px" y="0px"
	 width="85.682px" height="61.158px" viewBox="0 0 85.682 61.158" enable-background="new 0 0 85.682 61.158" xml:space="preserve">
<g opacity="0.6">
	<path fill-rule="evenodd" clip-rule="evenodd" fill="#A3D9D8" d="M54.854,47.082c-1.18,2.75-9.057-2.129-10.24,0.646
		c-0.41-0.215-0.891-0.297-1.03-0.564C37.659,35.943,30.082,32.211,17.15,34.048C11.898,34.806,6.589,35.361,1,36.056
		c0.237,0.58,0.443,1.871,1.168,2.699c7.221,8.35,16.003,14.072,26.996,16.213c2.655,0.51,5.169,1.654,7.76,2.514
		c-0.332-6.918-1.619-8.303-13.815-14.387c9.948,0.639,15.364,5.469,17.917,14.645c1.192-1.367,2.102-2.398,3.008-3.441
		c0.688,0.615,1.433,1.285,2.435,2.186c2.508-8.471,9.007-11.846,16.614-13.922c-1.513,1.096-3.057,2.162-4.535,3.303
		c-1.866,1.439-3.884,2.758-5.469,4.461c-1.389,1.492-2.28,3.463-3.622,5.592c21.623-1.797,34.006-13.996,34.116-34.14
		c-5.854,6.456-11.51,15.408-18.446,17.843c-4.398,1.525-7.183,1.93-11.381,4.023C52.973,44.373,55.611,46.355,54.854,47.082z"/>
	<path fill-rule="evenodd" clip-rule="evenodd" fill="#A3D9D8" d="M48.098,46.308c0.778-0.732,1.548-1.457,2.311-2.189
		c0.341-4.715,4.013-7.355,6.967-11.142c-0.241,1.679-0.414,2.83-0.585,4.029c11.604-2.266,16.781-11.537,11.738-19.898
		c-2.816,2.011-5.785,3.877-8.454,6.099c-2.741,2.274-5.202,4.892-7.405,6.999c-2.818-4.295-5.902-9.003-8.983-13.704l0.185,0.228
		C37.558,13.437,36.452,7.51,36.405,1c-8.382,5.34-12.034,14.723-9.603,24.059c0.546,2.066,1.17,4.104,1.769,6.151
		c0.244,0.528,0.489,1.038,0.735,1.558c3.936,4.169,7.882,8.332,11.82,12.488c2.685-4.592,2.685-4.592-1.884-16.896
		c5.806,4.563,7.451,10.175,5.373,19.369C45.97,47.181,47.04,46.746,48.098,46.308z"/>
	<path fill-rule="evenodd" clip-rule="evenodd" fill="#A3D9D8" d="M29.305,32.768c-0.246-0.52-0.491-1.029-0.735-1.558
		c-3.412-2.559-6.817-5.126-10.219-7.687l0.226,0.233c-4.755-0.813-9.54-1.62-14.209-2.424c0.565,10.934,9.817,18.321,21.8,16.571
		c-0.494-0.959-0.952-1.811-1.786-3.4c1.801,0.73,3.009,1.223,4.689,1.91C29.158,35.085,29.233,33.93,29.305,32.768z"/>
	<path fill-rule="evenodd" clip-rule="evenodd" fill="#A3D9D8" d="M59.351,7.057c-5.323,0.359-7.616,3.448-8.763,7.445
		c-1.081,3.768-1.078,7.538,2.979,10.256C61.711,20.834,56.914,13.13,59.351,7.057z"/>
	<path fill-rule="evenodd" clip-rule="evenodd" fill="#A3D9D8" d="M18.351,23.523c1.663,0.176,3.321,0.355,4.929,0.538
		c1.926-7.321-1.596-12.026-10.56-13.354c2.081,4.643,3.968,8.844,5.856,13.05L18.351,23.523z"/>
	<path fill-rule="evenodd" clip-rule="evenodd" fill="#A3D9D8" d="M43.686,16.501c4.805-1.623,5.595-2.765,4.63-7.091
		c-0.556-2.455-1.31-4.852-1.981-7.248c-4.335,2.256-5.815,5.393-4.401,9.916c0.502,1.594,1.279,3.085,1.934,4.634L43.686,16.501z"
		/>
</g>
</svg>
